<svg xmlns="http://www.w3.org/2000/svg" viewBox="0 0 100 100" width="512" height="512"><g transform="translate(50 50) scale(0.96) translate(-50 -50)"><polygon points="50,3.39 96.07,25.43 96.07,75.32 50,97.36 3.93,75.32 3.93,25.43" fill="#0b0f17" stroke="#22d3ee" stroke-width="3.34"/><g fill="#22d3ee"><polygon points="50.00,12.93 43.10,12.93 43.00,28.88 14.22,29.31 23.71,38.69 42.13,38.69 42.24,39.55 12.50,68.97 14.55,69.72 27.91,68.43 43.00,53.77 43.10,85.67 50.00,85.67 50.00,85.67 56.90,85.67 57.00,53.77 72.09,68.43 85.45,69.72 87.50,68.97 57.76,39.55 57.87,38.69 76.29,38.69 85.78,29.31 57.00,28.88 56.90,12.93 50.00,12.93"/></g></g></svg>